RobotoSlab_Thin_Space.ufo
<glyph name="percent" format="1">
  <advance width="1957"/>
  <unicode hex="0025"/>
  <outline>
    <contour>
      <point x="77" y="1099" type="line" smooth="yes"/>
      <point x="77" y="936"/>
      <point x="186" y="800"/>
      <point x="351" y="800" type="curve" smooth="yes"/>
      <point x="512" y="800"/>
      <point x="620" y="936"/>
      <point x="620" y="1099" type="curve" smooth="yes"/>
      <point x="620" y="1176" type="line" smooth="yes"/>
      <point x="620" y="1341"/>
      <point x="511" y="1477"/>
      <point x="349" y="1477" type="curve" smooth="yes"/>
      <point x="186" y="1477"/>
      <point x="77" y="1341"/>
      <point x="77" y="1176" type="curve" smooth="yes"/>
    </contour>
    <contour>
      <point x="132" y="1176" type="line" smooth="yes"/>
      <point x="132" y="1299"/>
      <point x="205" y="1422"/>
      <point x="349" y="1422" type="curve" smooth="yes"/>
      <point x="495" y="1422"/>
      <point x="565" y="1299"/>
      <point x="565" y="1176" type="curve" smooth="yes"/>
      <point x="565" y="1099" type="line" smooth="yes"/>
      <point x="565" y="977"/>
      <point x="496" y="855"/>
      <point x="351" y="855" type="curve" smooth="yes"/>
      <point x="202" y="855"/>
      <point x="132" y="978"/>
      <point x="132" y="1099" type="curve" smooth="yes"/>
    </contour>
    <contour>
      <point x="833" y="279" type="line" smooth="yes"/>
      <point x="833" y="115"/>
      <point x="942" y="-21"/>
      <point x="1106" y="-21" type="curve" smooth="yes"/>
      <point x="1268" y="-21"/>
      <point x="1376" y="115"/>
      <point x="1376" y="279" type="curve" smooth="yes"/>
      <point x="1376" y="357" type="line" smooth="yes"/>
      <point x="1376" y="521"/>
      <point x="1268" y="657"/>
      <point x="1104" y="657" type="curve" smooth="yes"/>
      <point x="942" y="657"/>
      <point x="833" y="521"/>
      <point x="833" y="357" type="curve" smooth="yes"/>
    </contour>
    <contour>
      <point x="888" y="357" type="line" smooth="yes"/>
      <point x="888" y="491"/>
      <point x="961" y="602"/>
      <point x="1104" y="602" type="curve" smooth="yes"/>
      <point x="1251" y="602"/>
      <point x="1321" y="491"/>
      <point x="1321" y="357" type="curve" smooth="yes"/>
      <point x="1321" y="279" type="line" smooth="yes"/>
      <point x="1321" y="156"/>
      <point x="1252" y="34"/>
      <point x="1106" y="34" type="curve" smooth="yes"/>
      <point x="957" y="34"/>
      <point x="888" y="157"/>
      <point x="888" y="279" type="curve" smooth="yes"/>
    </contour>
    <contour>
      <point x="1150" y="1269" type="line"/>
      <point x="1105" y="1300" type="line"/>
      <point x="394" y="162" type="line"/>
      <point x="439" y="131" type="line"/>
    </contour>
  </outline>
</glyph>
<glyph name="quotesingle" format="1">
  <advance width="921"/>
  <unicode hex="0027"/>
  <outline>
    <contour>
      <point x="236" y="1560" type="line"/>
      <point x="181" y="1560" type="line"/>
      <point x="181" y="1389" type="line"/>
      <point x="166" y="1122" type="line"/>
      <point x="216" y="1122" type="line"/>
      <point x="236" y="1391" type="line"/>
    </contour>
  </outline>
</glyph>
<glyph name="parenleft" format="1">
  <advance width="1115"/>
  <unicode hex="0028"/>
  <outline>
    <contour>
      <point x="114" y="566" type="line" smooth="yes"/>
      <point x="114" y="80"/>
      <point x="305" y="-329"/>
      <point x="528" y="-470" type="curve"/>
      <point x="547" y="-427" type="line"/>
      <point x="349" y="-296"/>
      <point x="168" y="132"/>
      <point x="168" y="564" type="curve" smooth="yes"/>
      <point x="168" y="590" type="line" smooth="yes"/>
      <point x="168" y="1022"/>
      <point x="349" y="1450"/>
      <point x="547" y="1580" type="curve"/>
      <point x="528" y="1623" type="line"/>
      <point x="305" y="1482"/>
      <point x="114" y="1047"/>
      <point x="114" y="586" type="curve" smooth="yes"/>
    </contour>
  </outline>
</glyph>
<glyph name="hyphen" format="1">
  <advance width="1289"/>
  <unicode hex="002D"/>
  <outline>
    <contour>
      <point x="624" y="653" type="line"/>
      <point x="154" y="653" type="line"/>
      <point x="154" y="599" type="line"/>
      <point x="624" y="599" type="line"/>
    </contour>
  </outline>
</glyph>
<glyph name="eight" format="1">
  <advance width="1623"/>
  <unicode hex="0038"/>
  <outline>
    <contour>
      <point x="1020" y="379" type="curve" smooth="yes"/>
      <point x="1020" y="608"/>
      <point x="812" y="765"/>
      <point x="555" y="765" type="curve" smooth="yes"/>
      <point x="294" y="765"/>
      <point x="92" y="608"/>
      <point x="92" y="379" type="curve" smooth="yes"/>
      <point x="92" y="114"/>
      <point x="294" y="-21"/>
      <point x="557" y="-21" type="curve" smooth="yes"/>
      <point x="814" y="-21"/>
      <point x="1020" y="114"/>
    </contour>
    <contour>
      <point x="965" y="374" type="curve" smooth="yes"/>
      <point x="965" y="154"/>
      <point x="784" y="33"/>
      <point x="557" y="33" type="curve" smooth="yes"/>
      <point x="324" y="33"/>
      <point x="146" y="154"/>
      <point x="146" y="374" type="curve" smooth="yes"/>
      <point x="146" y="584"/>
      <point x="324" y="718"/>
      <point x="555" y="718" type="curve" smooth="yes"/>
      <point x="782" y="718"/>
      <point x="965" y="584"/>
    </contour>
    <contour>
      <point x="978" y="1086" type="curve" smooth="yes"/>
      <point x="978" y="1339"/>
      <point x="790" y="1477"/>
      <point x="555" y="1477" type="curve" smooth="yes"/>
      <point x="317" y="1477"/>
      <point x="133" y="1339"/>
      <point x="133" y="1086" type="curve" smooth="yes"/>
      <point x="133" y="871"/>
      <point x="317" y="723"/>
      <point x="557" y="723" type="curve" smooth="yes"/>
      <point x="792" y="723"/>
      <point x="978" y="871"/>
    </contour>
    <contour>
      <point x="924" y="1091" type="curve" smooth="yes"/>
      <point x="924" y="894"/>
      <point x="762" y="772"/>
      <point x="557" y="772" type="curve" smooth="yes"/>
      <point x="346" y="772"/>
      <point x="187" y="894"/>
      <point x="187" y="1091" type="curve" smooth="yes"/>
      <point x="187" y="1297"/>
      <point x="346" y="1423"/>
      <point x="555" y="1423" type="curve" smooth="yes"/>
      <point x="760" y="1423"/>
      <point x="924" y="1285"/>
    </contour>
  </outline>
</glyph>
<glyph name="C" format="1">
  <advance width="1873"/>
  <unicode hex="0043"/>
  <outline>
    <contour>
      <point x="1256" y="1246" type="line"/>
      <point x="1160" y="1387"/>
      <point x="982" y="1477"/>
      <point x="767" y="1477" type="curve" smooth="yes"/>
      <point x="387" y="1477"/>
      <point x="130" y="1177"/>
      <point x="130" y="737" type="curve" smooth="yes"/>
      <point x="130" y="719" type="line" smooth="yes"/>
      <point x="130" y="279"/>
      <point x="389" y="-21"/>
      <point x="757" y="-21" type="curve" smooth="yes"/>
      <point x="972" y="-21"/>
      <point x="1160" y="69"/>
      <point x="1256" y="210" type="curve"/>
      <point x="1256" y="464" type="line"/>
      <point x="1201" y="464" type="line"/>
      <point x="1201" y="230" type="line"/>
      <point x="1116" y="114"/>
      <point x="954" y="33"/>
      <point x="757" y="33" type="curve" smooth="yes"/>
      <point x="426" y="33"/>
      <point x="184" y="306"/>
      <point x="184" y="719" type="curve" smooth="yes"/>
      <point x="184" y="739" type="line" smooth="yes"/>
      <point x="184" y="1150"/>
      <point x="424" y="1423"/>
      <point x="767" y="1423" type="curve" smooth="yes"/>
      <point x="964" y="1423"/>
      <point x="1116" y="1342"/>
      <point x="1201" y="1226" type="curve"/>
      <point x="1201" y="992" type="line"/>
      <point x="1256" y="992" type="line"/>
    </contour>
  </outline>
</glyph>
<glyph name="G" format="1">
  <advance width="1949"/>
  <unicode hex="0047"/>
  <outline>
    <contour>
      <point x="1248" y="620" type="line"/>
      <point x="879" y="620" type="line"/>
      <point x="879" y="565" type="line"/>
      <point x="1194" y="565" type="line"/>
      <point x="1194" y="181" type="line"/>
      <point x="1149" y="122"/>
      <point x="989" y="33"/>
      <point x="751" y="33" type="curve" smooth="yes"/>
      <point x="407" y="33"/>
      <point x="184" y="317"/>
      <point x="184" y="720" type="curve" smooth="yes"/>
      <point x="184" y="760" type="line" smooth="yes"/>
      <point x="184" y="1148"/>
      <point x="409" y="1423"/>
      <point x="754" y="1423" type="curve" smooth="yes"/>
      <point x="960" y="1423"/>
      <point x="1111" y="1352"/>
      <point x="1200" y="1236" type="curve"/>
      <point x="1199" y="1012" type="line"/>
      <point x="1253" y="1012" type="line"/>
      <point x="1253" y="1256" type="line"/>
      <point x="1153" y="1397"/>
      <point x="978" y="1477"/>
      <point x="754" y="1477" type="curve" smooth="yes"/>
      <point x="385" y="1477"/>
      <point x="130" y="1185"/>
      <point x="130" y="758" type="curve" smooth="yes"/>
      <point x="130" y="720" type="line" smooth="yes"/>
      <point x="130" y="280"/>
      <point x="383" y="-21"/>
      <point x="751" y="-21" type="curve" smooth="yes"/>
      <point x="1035" y="-21"/>
      <point x="1201" y="90"/>
      <point x="1248" y="156" type="curve"/>
    </contour>
  </outline>
</glyph>
<glyph name="P" format="1">
  <advance width="1755"/>
  <unicode hex="0050"/>
  <outline>
    <contour>
      <point x="639" y="625" type="line" smooth="yes"/>
      <point x="950" y="625"/>
      <point x="1109" y="796"/>
      <point x="1109" y="1041" type="curve" smooth="yes"/>
      <point x="1109" y="1285"/>
      <point x="949" y="1456"/>
      <point x="639" y="1456" type="curve" smooth="yes"/>
      <point x="234" y="1456" type="line"/>
      <point x="234" y="0" type="line"/>
      <point x="288" y="0" type="line"/>
      <point x="288" y="1402" type="line"/>
      <point x="639" y="1402" type="line" smooth="yes"/>
      <point x="933" y="1402"/>
      <point x="1055" y="1234"/>
      <point x="1055" y="1039" type="curve" smooth="yes"/>
      <point x="1055" y="851"/>
      <point x="933" y="679"/>
      <point x="639" y="679" type="curve" smooth="yes"/>
      <point x="247" y="679" type="line"/>
      <point x="247" y="625" type="line"/>
    </contour>
    <contour>
      <point x="234" y="0" type="line"/>
      <point x="234" y="54" type="line"/>
      <point x="71" y="54" type="line"/>
      <point x="71" y="0" type="line"/>
    </contour>
    <contour>
      <point x="288" y="0" type="line"/>
      <point x="451" y="0" type="line"/>
      <point x="451" y="54" type="line"/>
      <point x="288" y="54" type="line"/>
    </contour>
    <contour>
      <point x="234" y="1456" type="line"/>
      <point x="71" y="1456" type="line"/>
      <point x="71" y="1402" type="line"/>
      <point x="234" y="1402" type="line"/>
    </contour>
  </outline>
</glyph>
<glyph name="yen" format="1">
  <advance width="1881"/>
  <unicode hex="00A5"/>
  <outline>
    <contour>
      <point x="1168" y="676" type="line"/>
      <point x="212" y="676" type="line"/>
      <point x="212" y="621" type="line"/>
      <point x="1168" y="621" type="line"/>
    </contour>
    <contour>
      <point x="1168" y="381" type="line"/>
      <point x="212" y="381" type="line"/>
      <point x="212" y="326" type="line"/>
      <point x="1168" y="326" type="line"/>
    </contour>
    <contour>
      <point x="716" y="738" type="line"/>
      <point x="665" y="629" type="line"/>
      <point x="715" y="629" type="line"/>
      <point x="1233" y="1456" type="line"/>
      <point x="1167" y="1456" type="line"/>
    </contour>
    <contour>
      <point x="211" y="1456" type="line"/>
      <point x="146" y="1456" type="line"/>
      <point x="663" y="629" type="line"/>
      <point x="714" y="629" type="line"/>
      <point x="663" y="738" type="line"/>
    </contour>
    <contour>
      <point x="716" y="687" type="line"/>
      <point x="662" y="687" type="line"/>
      <point x="662" y="0" type="line"/>
      <point x="716" y="0" type="line"/>
    </contour>
    <contour>
      <point x="146" y="1456" type="line"/>
      <point x="59" y="1456" type="line"/>
      <point x="59" y="1402" type="line"/>
      <point x="210" y="1402" type="line"/>
    </contour>
    <contour>
      <point x="211" y="1456" type="line"/>
      <point x="211" y="1402" type="line"/>
      <point x="374" y="1402" type="line"/>
      <point x="374" y="1456" type="line"/>
    </contour>
    <contour>
      <point x="1233" y="1456" type="line"/>
      <point x="1169" y="1402" type="line"/>
      <point x="1320" y="1402" type="line"/>
      <point x="1320" y="1456" type="line"/>
    </contour>
    <contour>
      <point x="1167" y="1456" type="line"/>
      <point x="1004" y="1456" type="line"/>
      <point x="1004" y="1402" type="line"/>
      <point x="1167" y="1402" type="line"/>
    </contour>
    <contour>
      <point x="662" y="0" type="line"/>
      <point x="662" y="54" type="line"/>
      <point x="499" y="54" type="line"/>
      <point x="499" y="0" type="line"/>
    </contour>
    <contour>
      <point x="716" y="0" type="line"/>
      <point x="879" y="0" type="line"/>
      <point x="879" y="54" type="line"/>
      <point x="716" y="54" type="line"/>
    </contour>
  </outline>
</glyph>
<glyph name="copyright" format="1">
  <advance width="2096"/>
  <unicode hex="00A9"/>
  <outline>
    <contour>
      <point x="1041" y="596" type="line"/>
      <point x="1041" y="417"/>
      <point x="953" y="337"/>
      <point x="795" y="337" type="curve" smooth="yes"/>
      <point x="626" y="337"/>
      <point x="530" y="482"/>
      <point x="530" y="669" type="curve" smooth="yes"/>
      <point x="530" y="789" type="line" smooth="yes"/>
      <point x="530" y="974"/>
      <point x="626" y="1122"/>
      <point x="795" y="1122" type="curve" smooth="yes"/>
      <point x="953" y="1122"/>
      <point x="1042" y="1036"/>
      <point x="1042" y="862" type="curve"/>
      <point x="1094" y="862" type="line"/>
      <point x="1094" y="1071"/>
      <point x="976" y="1175"/>
      <point x="795" y="1175" type="curve" smooth="yes"/>
      <point x="604" y="1175"/>
      <point x="475" y="1017"/>
      <point x="475" y="788" type="curve" smooth="yes"/>
      <point x="475" y="669" type="line" smooth="yes"/>
      <point x="475" y="439"/>
      <point x="604" y="282"/>
      <point x="795" y="282" type="curve" smooth="yes"/>
      <point x="976" y="282"/>
      <point x="1093" y="386"/>
      <point x="1093" y="596" type="curve"/>
    </contour>
    <contour>
      <point x="148" y="729" type="curve" smooth="yes"/>
      <point x="148" y="1117"/>
      <point x="443" y="1421"/>
      <point x="802" y="1421" type="curve" smooth="yes"/>
      <point x="1160" y="1421"/>
      <point x="1456" y="1117"/>
      <point x="1456" y="729" type="curve" smooth="yes"/>
      <point x="1456" y="341"/>
      <point x="1160" y="34"/>
      <point x="802" y="34" type="curve" smooth="yes"/>
      <point x="443" y="34"/>
      <point x="148" y="341"/>
    </contour>
    <contour>
      <point x="92" y="729" type="curve" smooth="yes"/>
      <point x="92" y="306"/>
      <point x="411" y="-21"/>
      <point x="802" y="-21" type="curve" smooth="yes"/>
      <point x="1194" y="-21"/>
      <point x="1512" y="306"/>
      <point x="1512" y="729" type="curve" smooth="yes"/>
      <point x="1512" y="1152"/>
      <point x="1194" y="1476"/>
      <point x="802" y="1476" type="curve" smooth="yes"/>
      <point x="411" y="1476"/>
      <point x="92" y="1152"/>
    </contour>
  </outline>
</glyph>
<glyph name="logicalnot" format="1">
  <advance width="1604"/>
  <unicode hex="00AC"/>
  <outline>
    <contour>
      <point x="914" y="753" type="line"/>
      <point x="121" y="753" type="line"/>
      <point x="121" y="700" type="line"/>
      <point x="914" y="700" type="line"/>
    </contour>
    <contour>
      <point x="914" y="706" type="line"/>
      <point x="860" y="706" type="line"/>
      <point x="860" y="396" type="line"/>
      <point x="914" y="396" type="line"/>
    </contour>
  </outline>
</glyph>
<glyph name="onesuperior" format="1">
  <advance width="971"/>
  <unicode hex="00B9"/>
  <outline>
    <contour>
      <point x="308" y="1477" type="line"/>
      <point x="88" y="1454" type="line"/>
      <point x="88" y="1398" type="line"/>
      <point x="254" y="1412" type="line"/>
      <point x="254" y="665" type="line"/>
      <point x="308" y="665" type="line"/>
    </contour>
  </outline>
</glyph>
<glyph name="divide" format="1">
  <advance width="1648"/>
  <unicode hex="00F7"/>
  <outline>
    <contour>
      <point x="1072" y="738" type="line"/>
      <point x="74" y="738" type="line"/>
      <point x="74" y="686" type="line"/>
      <point x="1072" y="686" type="line"/>
    </contour>
    <contour>
      <point x="632" y="1142" type="line"/>
      <point x="536" y="1142" type="line"/>
      <point x="536" y="1020" type="line"/>
      <point x="632" y="1020" type="line"/>
    </contour>
    <contour>
      <point x="632" y="363" type="line"/>
      <point x="536" y="363" type="line"/>
      <point x="536" y="241" type="line"/>
      <point x="632" y="241" type="line"/>
    </contour>
  </outline>
</glyph>
<glyph name="eng" format="1">
  <advance width="1725"/>
  <unicode hex="014B"/>
  <outline>
    <contour>
      <point x="307" y="851" type="line"/>
      <point x="301" y="1082" type="line"/>
      <point x="253" y="1082" type="line"/>
      <point x="253" y="0" type="line"/>
      <point x="307" y="0" type="line"/>
    </contour>
    <contour>
      <point x="298" y="554" type="line"/>
      <point x="298" y="785"/>
      <point x="381" y="1048"/>
      <point x="684" y="1048" type="curve" smooth="yes"/>
      <point x="851" y="1048"/>
      <point x="983" y="962"/>
      <point x="983" y="639" type="curve" smooth="yes"/>
      <point x="983" y="-89" type="line" smooth="yes"/>
      <point x="983" y="-277"/>
      <point x="899" y="-384"/>
      <point x="752" y="-384" type="curve" smooth="yes"/>
      <point x="707" y="-384"/>
      <point x="656" y="-373"/>
      <point x="632" y="-365" type="curve"/>
      <point x="619" y="-417" type="line"/>
      <point x="664" y="-430"/>
      <point x="703" y="-437"/>
      <point x="752" y="-437" type="curve" smooth="yes"/>
      <point x="930" y="-437"/>
      <point x="1037" y="-314"/>
      <point x="1037" y="-89" type="curve" smooth="yes"/>
      <point x="1037" y="637" type="line" smooth="yes"/>
      <point x="1037" y="966"/>
      <point x="915" y="1102"/>
      <point x="683" y="1102" type="curve" smooth="yes"/>
      <point x="387" y="1102"/>
      <point x="253" y="875"/>
      <point x="253" y="554" type="curve"/>
    </contour>
    <contour>
      <point x="307" y="0" type="line"/>
      <point x="470" y="0" type="line"/>
      <point x="470" y="54" type="line"/>
      <point x="307" y="54" type="line"/>
    </contour>
    <contour>
      <point x="253" y="1082" type="line"/>
      <point x="90" y="1082" type="line"/>
      <point x="90" y="1028" type="line"/>
      <point x="253" y="1028" type="line"/>
    </contour>
    <contour>
      <point x="253" y="0" type="line"/>
      <point x="253" y="54" type="line"/>
      <point x="90" y="54" type="line"/>
      <point x="90" y="0" type="line"/>
    </contour>
  </outline>
</glyph>
<glyph name="macron" format="1">
  <advance width="1986"/>
  <unicode hex="02C9"/>
  <outline>
    <contour>
      <point x="781" y="1456" type="line"/>
      <point x="154" y="1456" type="line"/>
      <point x="154" y="1403" type="line"/>
      <point x="781" y="1403" type="line"/>
    </contour>
  </outline>
</glyph>
<glyph name="ring" format="1">
  <advance width="1123"/>
  <unicode hex="02DA"/>
  <outline>
    <contour>
      <point x="138" y="1338" type="curve" smooth="yes"/>
      <point x="138" y="1262"/>
      <point x="200" y="1203"/>
      <point x="274" y="1203" type="curve" smooth="yes"/>
      <point x="347" y="1203"/>
      <point x="407" y="1262"/>
      <point x="407" y="1338" type="curve" smooth="yes"/>
      <point x="407" y="1414"/>
      <point x="347" y="1477"/>
      <point x="274" y="1477" type="curve" smooth="yes"/>
      <point x="200" y="1477"/>
      <point x="138" y="1414"/>
    </contour>
    <contour>
      <point x="195" y="1338" type="curve" smooth="yes"/>
      <point x="195" y="1386"/>
      <point x="231" y="1420"/>
      <point x="274" y="1420" type="curve" smooth="yes"/>
      <point x="317" y="1420"/>
      <point x="350" y="1386"/>
      <point x="350" y="1338" type="curve" smooth="yes"/>
      <point x="350" y="1292"/>
      <point x="317" y="1259"/>
      <point x="274" y="1259" type="curve" smooth="yes"/>
      <point x="231" y="1259"/>
      <point x="195" y="1292"/>
    </contour>
  </outline>
</glyph>
<glyph name="tilde" format="1">
  <advance width="1423"/>
  <unicode hex="02DC"/>
  <outline>
    <contour>
      <point x="711" y="1482" type="line"/>
      <point x="711" y="1398"/>
      <point x="656" y="1341"/>
      <point x="590" y="1341" type="curve" smooth="yes"/>
      <point x="478" y="1341"/>
      <point x="442" y="1465"/>
      <point x="303" y="1465" type="curve" smooth="yes"/>
      <point x="204" y="1465"/>
      <point x="127" y="1396"/>
      <point x="127" y="1286" type="curve"/>
      <point x="182" y="1276" type="line"/>
      <point x="182" y="1360"/>
      <point x="236" y="1411"/>
      <point x="303" y="1411" type="curve" smooth="yes"/>
      <point x="421" y="1411"/>
      <point x="446" y="1286"/>
      <point x="590" y="1286" type="curve" smooth="yes"/>
      <point x="688" y="1286"/>
      <point x="766" y="1361"/>
      <point x="766" y="1472" type="curve"/>
    </contour>
  </outline>
</glyph>
<glyph name="anoteleia" format="1">
  <advance width="972"/>
  <unicode hex="0387"/>
  <outline>
    <contour>
      <point x="277" y="776" type="line"/>
      <point x="159" y="776" type="line"/>
      <point x="159" y="624" type="line"/>
      <point x="277" y="624" type="line"/>
    </contour>
  </outline>
</glyph>
<glyph name="Psi" format="1">
  <advance width="2120"/>
  <unicode hex="03A8"/>
  <outline>
    <contour>
      <point x="1282" y="1456" type="line"/>
      <point x="1282" y="946" type="line" smooth="yes"/>
      <point x="1282" y="654"/>
      <point x="1075" y="471"/>
      <point x="789" y="471" type="curve" smooth="yes"/>
      <point x="769" y="471" type="line" smooth="yes"/>
      <point x="481" y="471"/>
      <point x="273" y="654"/>
      <point x="273" y="946" type="curve" smooth="yes"/>
      <point x="273" y="1456" type="line"/>
      <point x="218" y="1456" type="line"/>
      <point x="218" y="946" type="line" smooth="yes"/>
      <point x="218" y="607"/>
      <point x="450" y="416"/>
      <point x="769" y="416" type="curve" smooth="yes"/>
      <point x="789" y="416" type="line" smooth="yes"/>
      <point x="1107" y="416"/>
      <point x="1336" y="607"/>
      <point x="1336" y="946" type="curve" smooth="yes"/>
      <point x="1336" y="1456" type="line"/>
    </contour>
    <contour>
      <point x="803" y="1456" type="line"/>
      <point x="748" y="1456" type="line"/>
      <point x="748" y="0" type="line"/>
      <point x="803" y="0" type="line"/>
    </contour>
    <contour>
      <point x="1336" y="1456" type="line"/>
      <point x="1336" y="1402" type="line"/>
      <point x="1499" y="1402" type="line"/>
      <point x="1499" y="1456" type="line"/>
    </contour>
    <contour>
      <point x="803" y="0" type="line"/>
      <point x="966" y="0" type="line"/>
      <point x="966" y="54" type="line"/>
      <point x="803" y="54" type="line"/>
    </contour>
    <contour>
      <point x="748" y="0" type="line"/>
      <point x="748" y="54" type="line"/>
      <point x="585" y="54" type="line"/>
      <point x="585" y="0" type="line"/>
    </contour>
    <contour>
      <point x="748" y="1456" type="line"/>
      <point x="585" y="1456" type="line"/>
      <point x="585" y="1402" type="line"/>
      <point x="748" y="1402" type="line"/>
    </contour>
    <contour>
      <point x="803" y="1456" type="line"/>
      <point x="803" y="1402" type="line"/>
      <point x="966" y="1402" type="line"/>
      <point x="966" y="1456" type="line"/>
    </contour>
    <contour>
      <point x="218" y="1456" type="line"/>
      <point x="55" y="1456" type="line"/>
      <point x="55" y="1402" type="line"/>
      <point x="218" y="1402" type="line"/>
    </contour>
  </outline>
</glyph>
<glyph name="sigma" format="1">
  <advance width="1737"/>
  <unicode hex="03C3"/>
  <outline>
    <contour>
      <point x="105" y="520" type="line" smooth="yes"/>
      <point x="105" y="203"/>
      <point x="298" y="-21"/>
      <point x="580" y="-21" type="curve" smooth="yes"/>
      <point x="861" y="-21"/>
      <point x="1052" y="203"/>
      <point x="1052" y="521" type="curve" smooth="yes"/>
      <point x="1052" y="564" type="line" smooth="yes"/>
      <point x="1052" y="810"/>
      <point x="922" y="994"/>
      <point x="713" y="1058" type="curve"/>
      <point x="672" y="1073"/>
      <point x="627" y="1082"/>
      <point x="578" y="1082" type="curve" smooth="yes"/>
      <point x="298" y="1082"/>
      <point x="105" y="865"/>
      <point x="105" y="562" type="curve" smooth="yes"/>
    </contour>
    <contour>
      <point x="159" y="562" type="line" smooth="yes"/>
      <point x="159" y="805"/>
      <point x="314" y="1027"/>
      <point x="578" y="1027" type="curve" smooth="yes"/>
      <point x="843" y="1027"/>
      <point x="998" y="805"/>
      <point x="998" y="562" type="curve" smooth="yes"/>
      <point x="998" y="520" type="line" smooth="yes"/>
      <point x="998" y="261"/>
      <point x="843" y="33"/>
      <point x="580" y="33" type="curve" smooth="yes"/>
      <point x="314" y="33"/>
      <point x="159" y="261"/>
      <point x="159" y="520" type="curve" smooth="yes"/>
    </contour>
    <contour>
      <point x="1135" y="1082" type="line"/>
      <point x="577" y="1082" type="line"/>
      <point x="577" y="1027" type="line"/>
      <point x="1135" y="1027" type="line"/>
    </contour>
  </outline>
</glyph>
<glyph name="tau" format="1">
  <advance width="1535"/>
  <unicode hex="03C4"/>
  <outline>
    <contour>
      <point x="62" y="1082" type="line"/>
      <point x="62" y="1027" type="line"/>
      <point x="969" y="1027" type="line"/>
      <point x="969" y="1082" type="line"/>
    </contour>
    <contour>
      <point x="471" y="1081" type="line"/>
      <point x="471" y="279" type="line" smooth="yes"/>
      <point x="471" y="62"/>
      <point x="550" y="-21"/>
      <point x="714" y="-21" type="curve" smooth="yes"/>
      <point x="751" y="-21"/>
      <point x="803" y="-14"/>
      <point x="838" y="-3" type="curve"/>
      <point x="829" y="47" type="line"/>
      <point x="791" y="42"/>
      <point x="752" y="33"/>
      <point x="711" y="33" type="curve" smooth="yes"/>
      <point x="602" y="33"/>
      <point x="526" y="89"/>
      <point x="526" y="279" type="curve" smooth="yes"/>
      <point x="526" y="1081" type="line"/>
    </contour>
  </outline>
</glyph>
<glyph name="uni0402" format="1">
  <advance width="2045"/>
  <unicode hex="0402"/>
  <outline>
    <contour>
      <point x="570" y="727" type="line"/>
      <point x="690" y="773"/>
      <point x="822" y="827"/>
      <point x="959" y="827" type="curve" smooth="yes"/>
      <point x="1199" y="827"/>
      <point x="1385" y="711"/>
      <point x="1385" y="415" type="curve" smooth="yes"/>
      <point x="1385" y="231"/>
      <point x="1248" y="40"/>
      <point x="979" y="40" type="curve"/>
      <point x="979" y="-11" type="line"/>
      <point x="1309" y="-11"/>
      <point x="1439" y="238"/>
      <point x="1439" y="415" type="curve" smooth="yes"/>
      <point x="1439" y="758"/>
      <point x="1231" y="880"/>
      <point x="959" y="880" type="curve" smooth="yes"/>
      <point x="838" y="880"/>
      <point x="691" y="830"/>
      <point x="570" y="780" type="curve"/>
    </contour>
    <contour>
      <point x="588" y="1456" type="line"/>
      <point x="534" y="1456" type="line"/>
      <point x="534" y="0" type="line"/>
      <point x="588" y="0" type="line"/>
    </contour>
    <contour>
      <point x="1198" y="1456" type="line"/>
      <point x="84" y="1456" type="line"/>
      <point x="84" y="1402" type="line"/>
      <point x="1198" y="1402" type="line"/>
    </contour>
    <contour>
      <point x="1198" y="1456" type="line"/>
      <point x="1144" y="1456" type="line"/>
      <point x="1144" y="1163" type="line"/>
      <point x="1198" y="1163" type="line"/>
    </contour>
    <contour>
      <point x="84" y="1456" type="line"/>
      <point x="84" y="1163" type="line"/>
      <point x="138" y="1163" type="line"/>
      <point x="138" y="1456" type="line"/>
    </contour>
    <contour>
      <point x="588" y="0" type="line"/>
      <point x="751" y="0" type="line"/>
      <point x="751" y="54" type="line"/>
      <point x="588" y="54" type="line"/>
    </contour>
    <contour>
      <point x="534" y="0" type="line"/>
      <point x="534" y="54" type="line"/>
      <point x="371" y="54" type="line"/>
      <point x="371" y="0" type="line"/>
    </contour>
  </outline>
</glyph>
<glyph name="uni0409" format="1">
  <advance width="2687"/>
  <unicode hex="0409"/>
  <outline>
    <contour>
      <point x="1208" y="1456" type="line"/>
      <point x="549" y="1456" type="line"/>
      <point x="549" y="1402" type="line"/>
      <point x="1208" y="1402" type="line"/>
    </contour>
    <contour>
      <point x="526" y="1456" type="line"/>
      <point x="484" y="822" type="line" smooth="yes"/>
      <point x="444" y="196"/>
      <point x="354" y="54"/>
      <point x="95" y="54" type="curve" smooth="yes"/>
      <point x="60" y="54" type="line"/>
      <point x="60" y="0" type="line"/>
      <point x="92" y="0" type="line" smooth="yes"/>
      <point x="430" y="0"/>
      <point x="500" y="225"/>
      <point x="538" y="822" type="curve" smooth="yes"/>
      <point x="580" y="1456" type="line"/>
    </contour>
    <contour>
      <point x="1198" y="808" type="line"/>
      <point x="1198" y="754" type="line"/>
      <point x="1608" y="754" type="line" smooth="yes"/>
      <point x="1904" y="754"/>
      <point x="2026" y="582"/>
      <point x="2026" y="406" type="curve" smooth="yes"/>
      <point x="2026" y="222"/>
      <point x="1904" y="54"/>
      <point x="1608" y="54" type="curve" smooth="yes"/>
      <point x="1239" y="54" type="line"/>
      <point x="1239" y="1456" type="line"/>
      <point x="1185" y="1456" type="line"/>
      <point x="1185" y="0" type="line"/>
      <point x="1608" y="0" type="line" smooth="yes"/>
      <point x="1920" y="0"/>
      <point x="2080" y="172"/>
      <point x="2080" y="404" type="curve" smooth="yes"/>
      <point x="2080" y="636"/>
      <point x="1921" y="808"/>
      <point x="1608" y="808" type="curve" smooth="yes"/>
    </contour>
    <contour>
      <point x="1239" y="1456" type="line"/>
      <point x="1239" y="1402" type="line"/>
      <point x="1402" y="1402" type="line"/>
      <point x="1402" y="1456" type="line"/>
    </contour>
    <contour>
      <point x="526" y="1456" type="line"/>
      <point x="363" y="1456" type="line"/>
      <point x="363" y="1402" type="line"/>
      <point x="526" y="1402" type="line"/>
    </contour>
  </outline>
</glyph>
<glyph name="uni0417" format="1">
  <advance width="1711"/>
  <unicode hex="0417"/>
  <outline>
    <contour>
      <point x="571" y="719" type="line" smooth="yes"/>
      <point x="893" y="719"/>
      <point x="1065" y="883"/>
      <point x="1065" y="1083" type="curve" smooth="yes"/>
      <point x="1065" y="1341"/>
      <point x="872" y="1477"/>
      <point x="572" y="1477" type="curve" smooth="yes"/>
      <point x="357" y="1477"/>
      <point x="179" y="1387"/>
      <point x="83" y="1246" type="curve"/>
      <point x="83" y="1012" type="line"/>
      <point x="138" y="1012" type="line"/>
      <point x="138" y="1226" type="line"/>
      <point x="223" y="1342"/>
      <point x="375" y="1423"/>
      <point x="572" y="1423" type="curve" smooth="yes"/>
      <point x="877" y="1423"/>
      <point x="1011" y="1282"/>
      <point x="1011" y="1087" type="curve" smooth="yes"/>
      <point x="1011" y="893"/>
      <point x="882" y="771"/>
      <point x="567" y="771" type="curve" smooth="yes"/>
      <point x="383" y="771" type="line"/>
      <point x="383" y="719" type="line"/>
    </contour>
    <contour>
      <point x="383" y="764" type="line"/>
      <point x="383" y="715" type="line"/>
      <point x="567" y="715" type="line" smooth="yes"/>
      <point x="870" y="715"/>
      <point x="1034" y="620"/>
      <point x="1034" y="382" type="curve" smooth="yes"/>
      <point x="1034" y="165"/>
      <point x="867" y="33"/>
      <point x="572" y="33" type="curve" smooth="yes"/>
      <point x="308" y="33"/>
      <point x="124" y="188"/>
      <point x="124" y="404" type="curve"/>
      <point x="69" y="404" type="line"/>
      <point x="69" y="112"/>
      <point x="331" y="-21"/>
      <point x="572" y="-21" type="curve" smooth="yes"/>
      <point x="872" y="-21"/>
      <point x="1088" y="128"/>
      <point x="1088" y="386" type="curve" smooth="yes"/>
      <point x="1088" y="629"/>
      <point x="923" y="764"/>
      <point x="571" y="764" type="curve" smooth="yes"/>
    </contour>
  </outline>
</glyph>
<glyph name="uni042F" format="1">
  <advance width="1863"/>
  <unicode hex="042F"/>
  <outline>
    <contour>
      <point x="1081" y="639" type="line"/>
      <point x="1083" y="694" type="line"/>
      <point x="607" y="694" type="line" smooth="yes"/>
      <point x="384" y="694"/>
      <point x="249" y="826"/>
      <point x="249" y="1030" type="curve" smooth="yes"/>
      <point x="249" y="1270"/>
      <point x="392" y="1402"/>
      <point x="669" y="1402" type="curve" smooth="yes"/>
      <point x="1040" y="1402" type="line"/>
      <point x="1040" y="0" type="line"/>
      <point x="1095" y="0" type="line"/>
      <point x="1095" y="1456" type="line"/>
      <point x="669" y="1456" type="line" smooth="yes"/>
      <point x="376" y="1456"/>
      <point x="195" y="1309"/>
      <point x="195" y="1028" type="curve" smooth="yes"/>
      <point x="195" y="844"/>
      <point x="297" y="720"/>
      <point x="484" y="664" type="curve"/>
      <point x="502" y="639" type="line"/>
    </contour>
    <contour>
      <point x="1040" y="0" type="line"/>
      <point x="1040" y="54" type="line"/>
      <point x="877" y="54" type="line"/>
      <point x="877" y="0" type="line"/>
    </contour>
    <contour>
      <point x="1095" y="1456" type="line"/>
      <point x="1095" y="1402" type="line"/>
      <point x="1258" y="1402" type="line"/>
      <point x="1258" y="1456" type="line"/>
    </contour>
    <contour>
      <point x="1095" y="0" type="line"/>
      <point x="1258" y="0" type="line"/>
      <point x="1258" y="54" type="line"/>
      <point x="1095" y="54" type="line"/>
    </contour>
    <contour>
      <point x="49" y="18" type="line"/>
      <point x="75" y="0"/>
      <point x="109" y="-8"/>
      <point x="135" y="-8" type="curve" smooth="yes"/>
      <point x="205" y="-8"/>
      <point x="285" y="25"/>
      <point x="345" y="176" type="curve" smooth="yes"/>
      <point x="535" y="641" type="line"/>
      <point x="782" y="641" type="line"/>
      <point x="785" y="694" type="line"/>
      <point x="508" y="694" type="line"/>
      <point x="305" y="211" type="line" smooth="yes"/>
      <point x="251" y="80"/>
      <point x="199" y="46"/>
      <point x="135" y="46" type="curve" smooth="yes"/>
      <point x="110" y="46"/>
      <point x="89" y="53"/>
      <point x="73" y="64" type="curve"/>
    </contour>
  </outline>
</glyph>
<glyph name="uni0433" format="1">
  <advance width="1530"/>
  <unicode hex="0433"/>
  <outline>
    <contour>
      <point x="885" y="1082" type="line"/>
      <point x="235" y="1082" type="line"/>
      <point x="235" y="0" type="line"/>
      <point x="289" y="0" type="line"/>
      <point x="289" y="1027" type="line"/>
      <point x="885" y="1027" type="line"/>
    </contour>
    <contour>
      <point x="235" y="54" type="line"/>
      <point x="72" y="54" type="line"/>
      <point x="72" y="0" type="line"/>
      <point x="235" y="0" type="line"/>
    </contour>
    <contour>
      <point x="885" y="1051" type="line"/>
      <point x="831" y="1051" type="line"/>
      <point x="831" y="890" type="line"/>
      <point x="885" y="890" type="line"/>
    </contour>
    <contour>
      <point x="235" y="1082" type="line"/>
      <point x="72" y="1082" type="line"/>
      <point x="72" y="1028" type="line"/>
      <point x="235" y="1028" type="line"/>
    </contour>
    <contour>
      <point x="452" y="54" type="line"/>
      <point x="289" y="54" type="line"/>
      <point x="289" y="0" type="line"/>
      <point x="452" y="0" type="line"/>
    </contour>
  </outline>
</glyph>
<glyph name="uni044F" format="1">
  <advance width="1752"/>
  <unicode hex="044F"/>
  <outline>
    <contour>
      <point x="438" y="476" type="line"/>
      <point x="152" y="0" type="line"/>
      <point x="216" y="0" type="line"/>
      <point x="503" y="476" type="line"/>
    </contour>
    <contour>
      <point x="537" y="1082" type="line" smooth="yes"/>
      <point x="301" y="1082"/>
      <point x="172" y="947"/>
      <point x="172" y="766" type="curve" smooth="yes"/>
      <point x="172" y="584"/>
      <point x="286" y="450"/>
      <point x="495" y="450" type="curve" smooth="yes"/>
      <point x="918" y="450" type="line"/>
      <point x="918" y="505" type="line"/>
      <point x="495" y="505" type="line" smooth="yes"/>
      <point x="304" y="505"/>
      <point x="226" y="632"/>
      <point x="226" y="764" type="curve" smooth="yes"/>
      <point x="226" y="904"/>
      <point x="316" y="1027"/>
      <point x="537" y="1027" type="curve" smooth="yes"/>
      <point x="883" y="1027" type="line"/>
      <point x="883" y="0" type="line"/>
      <point x="937" y="0" type="line"/>
      <point x="937" y="1082" type="line"/>
    </contour>
    <contour>
      <point x="937" y="1082" type="line"/>
      <point x="937" y="1028" type="line"/>
      <point x="1100" y="1028" type="line"/>
      <point x="1100" y="1082" type="line"/>
    </contour>
    <contour>
      <point x="937" y="0" type="line"/>
      <point x="1100" y="0" type="line"/>
      <point x="1100" y="54" type="line"/>
      <point x="937" y="54" type="line"/>
    </contour>
    <contour>
      <point x="883" y="0" type="line"/>
      <point x="883" y="54" type="line"/>
      <point x="720" y="54" type="line"/>
      <point x="720" y="0" type="line"/>
    </contour>
    <contour>
      <point x="152" y="0" type="line"/>
      <point x="216" y="54" type="line"/>
      <point x="65" y="54" type="line"/>
      <point x="65" y="0" type="line"/>
    </contour>
  </outline>
</glyph>
<glyph name="uni0452" format="1">
  <advance width="1700"/>
  <unicode hex="0452"/>
  <outline>
    <contour>
      <point x="952" y="414" type="line"/>
      <point x="952" y="-89" type="line" smooth="yes"/>
      <point x="952" y="-277"/>
      <point x="869" y="-383"/>
      <point x="721" y="-383" type="curve" smooth="yes"/>
      <point x="677" y="-383"/>
      <point x="626" y="-373"/>
      <point x="602" y="-365" type="curve"/>
      <point x="589" y="-417" type="line"/>
      <point x="634" y="-430"/>
      <point x="673" y="-437"/>
      <point x="721" y="-437" type="curve" smooth="yes"/>
      <point x="900" y="-437"/>
      <point x="1007" y="-314"/>
      <point x="1007" y="-89" type="curve" smooth="yes"/>
      <point x="1007" y="414" type="line"/>
    </contour>
    <contour>
      <point x="279" y="1560" type="line"/>
      <point x="225" y="1560" type="line"/>
      <point x="225" y="0" type="line"/>
      <point x="279" y="0" type="line"/>
    </contour>
    <contour>
      <point x="270" y="554" type="line"/>
      <point x="270" y="785"/>
      <point x="360" y="1048"/>
      <point x="664" y="1048" type="curve" smooth="yes"/>
      <point x="819" y="1048"/>
      <point x="952" y="967"/>
      <point x="952" y="660" type="curve" smooth="yes"/>
      <point x="952" y="0" type="line"/>
      <point x="1007" y="0" type="line"/>
      <point x="1007" y="658" type="line" smooth="yes"/>
      <point x="1007" y="973"/>
      <point x="882" y="1102"/>
      <point x="663" y="1102" type="curve" smooth="yes"/>
      <point x="367" y="1102"/>
      <point x="225" y="875"/>
      <point x="225" y="554" type="curve"/>
    </contour>
    <contour>
      <point x="225" y="0" type="line"/>
      <point x="225" y="54" type="line"/>
      <point x="62" y="54" type="line"/>
      <point x="62" y="0" type="line"/>
    </contour>
    <contour>
      <point x="279" y="0" type="line"/>
      <point x="442" y="0" type="line"/>
      <point x="442" y="54" type="line"/>
      <point x="279" y="54" type="line"/>
    </contour>
    <contour>
      <point x="225" y="1560" type="line"/>
      <point x="62" y="1560" type="line"/>
      <point x="62" y="1506" type="line"/>
      <point x="225" y="1506" type="line"/>
    </contour>
    <contour>
      <point x="554" y="1305" type="line"/>
      <point x="7" y="1305" type="line"/>
      <point x="7" y="1251" type="line"/>
      <point x="554" y="1251" type="line"/>
    </contour>
  </outline>
</glyph>
<glyph name="uni0454" format="1">
  <advance width="1586"/>
  <unicode hex="0454"/>
  <outline>
    <contour>
      <point x="733" y="570" type="line"/>
      <point x="143" y="570" type="line"/>
      <point x="143" y="516" type="line"/>
      <point x="733" y="516" type="line"/>
    </contour>
    <contour>
      <point x="561" y="33" type="curve" smooth="yes"/>
      <point x="294" y="33"/>
      <point x="173" y="249"/>
      <point x="173" y="520" type="curve" smooth="yes"/>
      <point x="173" y="562" type="line" smooth="yes"/>
      <point x="173" y="831"/>
      <point x="294" y="1048"/>
      <point x="559" y="1048" type="curve" smooth="yes"/>
      <point x="711" y="1048"/>
      <point x="826" y="985"/>
      <point x="898" y="895" type="curve"/>
      <point x="898" y="683" type="line"/>
      <point x="952" y="683" type="line"/>
      <point x="952" y="915" type="line"/>
      <point x="870" y="1028"/>
      <point x="724" y="1102"/>
      <point x="559" y="1102" type="curve" smooth="yes"/>
      <point x="280" y="1102"/>
      <point x="119" y="879"/>
      <point x="119" y="562" type="curve" smooth="yes"/>
      <point x="119" y="520" type="line" smooth="yes"/>
      <point x="119" y="203"/>
      <point x="280" y="-21"/>
      <point x="561" y="-21" type="curve" smooth="yes"/>
      <point x="757" y="-21"/>
      <point x="962" y="103"/>
      <point x="962" y="333" type="curve"/>
      <point x="908" y="333" type="line"/>
      <point x="908" y="116"/>
      <point x="721" y="33"/>
    </contour>
  </outline>
</glyph>
<glyph name="uni045A" format="1">
  <advance width="2377"/>
  <unicode hex="045A"/>
  <outline>
    <contour>
      <point x="1002" y="632" type="line"/>
      <point x="292" y="632" type="line"/>
      <point x="292" y="578" type="line"/>
      <point x="1002" y="578" type="line"/>
    </contour>
    <contour>
      <point x="314" y="1082" type="line"/>
      <point x="260" y="1082" type="line"/>
      <point x="260" y="0" type="line"/>
      <point x="314" y="0" type="line"/>
    </contour>
    <contour>
      <point x="1003" y="630" type="line"/>
      <point x="1003" y="576" type="line"/>
      <point x="1383" y="576" type="line" smooth="yes"/>
      <point x="1619" y="576"/>
      <point x="1716" y="449"/>
      <point x="1716" y="317" type="curve" smooth="yes"/>
      <point x="1716" y="179"/>
      <point x="1619" y="54"/>
      <point x="1383" y="54" type="curve" smooth="yes"/>
      <point x="1038" y="54" type="line"/>
      <point x="1038" y="1082" type="line"/>
      <point x="983" y="1082" type="line"/>
      <point x="983" y="0" type="line"/>
      <point x="1383" y="0" type="line" smooth="yes"/>
      <point x="1633" y="0"/>
      <point x="1770" y="133"/>
      <point x="1770" y="315" type="curve" smooth="yes"/>
      <point x="1770" y="496"/>
      <point x="1633" y="630"/>
      <point x="1383" y="630" type="curve" smooth="yes"/>
    </contour>
    <contour>
      <point x="983" y="0" type="line"/>
      <point x="983" y="54" type="line"/>
      <point x="820" y="54" type="line"/>
      <point x="820" y="0" type="line"/>
    </contour>
    <contour>
      <point x="1038" y="1082" type="line"/>
      <point x="1038" y="1028" type="line"/>
      <point x="1201" y="1028" type="line"/>
      <point x="1201" y="1082" type="line"/>
    </contour>
    <contour>
      <point x="983" y="1082" type="line"/>
      <point x="820" y="1082" type="line"/>
      <point x="820" y="1028" type="line"/>
      <point x="983" y="1028" type="line"/>
    </contour>
    <contour>
      <point x="314" y="0" type="line"/>
      <point x="477" y="0" type="line"/>
      <point x="477" y="54" type="line"/>
      <point x="314" y="54" type="line"/>
    </contour>
    <contour>
      <point x="260" y="0" type="line"/>
      <point x="260" y="54" type="line"/>
      <point x="97" y="54" type="line"/>
      <point x="97" y="0" type="line"/>
    </contour>
    <contour>
      <point x="260" y="1082" type="line"/>
      <point x="97" y="1082" type="line"/>
      <point x="97" y="1028" type="line"/>
      <point x="260" y="1028" type="line"/>
    </contour>
    <contour>
      <point x="314" y="1082" type="line"/>
      <point x="314" y="1028" type="line"/>
      <point x="477" y="1028" type="line"/>
      <point x="477" y="1082" type="line"/>
    </contour>
  </outline>
</glyph>
<glyph name="uni045F" format="1">
  <advance width="1853"/>
  <unicode hex="045F"/>
  <outline>
    <contour>
      <point x="627" y="54" type="line"/>
      <point x="627" y="-350" type="line"/>
      <point x="681" y="-350" type="line"/>
      <point x="681" y="54" type="line"/>
    </contour>
    <contour>
      <point x="261" y="1082" type="line"/>
      <point x="261" y="0" type="line"/>
      <point x="1039" y="0" type="line"/>
      <point x="1039" y="1082" type="line"/>
      <point x="984" y="1082" type="line"/>
      <point x="984" y="54" type="line"/>
      <point x="315" y="54" type="line"/>
      <point x="315" y="1082" type="line"/>
    </contour>
    <contour>
      <point x="984" y="1082" type="line"/>
      <point x="821" y="1082" type="line"/>
      <point x="821" y="1028" type="line"/>
      <point x="984" y="1028" type="line"/>
    </contour>
    <contour>
      <point x="1039" y="1082" type="line"/>
      <point x="1039" y="1028" type="line"/>
      <point x="1202" y="1028" type="line"/>
      <point x="1202" y="1082" type="line"/>
    </contour>
    <contour>
      <point x="1039" y="0" type="line"/>
      <point x="1202" y="0" type="line"/>
      <point x="1202" y="54" type="line"/>
      <point x="1039" y="54" type="line"/>
    </contour>
    <contour>
      <point x="261" y="0" type="line"/>
      <point x="261" y="54" type="line"/>
      <point x="98" y="54" type="line"/>
      <point x="98" y="0" type="line"/>
    </contour>
    <contour>
      <point x="261" y="1082" type="line"/>
      <point x="98" y="1082" type="line"/>
      <point x="98" y="1028" type="line"/>
      <point x="261" y="1028" type="line"/>
    </contour>
    <contour>
      <point x="315" y="1082" type="line"/>
      <point x="315" y="1028" type="line"/>
      <point x="478" y="1028" type="line"/>
      <point x="478" y="1082" type="line"/>
    </contour>
  </outline>
</glyph>
<glyph name="uni046D" format="1">
  <advance width="2550"/>
  <unicode hex="046D"/>
  <outline>
    <contour>
      <point x="972" y="585" type="line"/>
      <point x="269" y="585" type="line"/>
      <point x="269" y="530" type="line"/>
      <point x="972" y="530" type="line"/>
    </contour>
    <contour>
      <point x="307" y="1082" type="line"/>
      <point x="253" y="1082" type="line"/>
      <point x="253" y="0" type="line"/>
      <point x="307" y="0" type="line"/>
    </contour>
    <contour>
      <point x="253" y="0" type="line"/>
      <point x="253" y="54" type="line"/>
      <point x="90" y="54" type="line"/>
      <point x="90" y="0" type="line"/>
    </contour>
    <contour>
      <point x="307" y="0" type="line"/>
      <point x="470" y="0" type="line"/>
      <point x="470" y="54" type="line"/>
      <point x="307" y="54" type="line"/>
    </contour>
    <contour>
      <point x="253" y="1082" type="line"/>
      <point x="90" y="1082" type="line"/>
      <point x="90" y="1028" type="line"/>
      <point x="253" y="1028" type="line"/>
    </contour>
    <contour>
      <point x="683" y="0" type="line"/>
      <point x="683" y="225" type="line" smooth="yes"/>
      <point x="683" y="450"/>
      <point x="795" y="530"/>
      <point x="1036" y="530" type="curve" smooth="yes"/>
      <point x="1276" y="530" type="line" smooth="yes"/>
      <point x="1517" y="530"/>
      <point x="1629" y="450"/>
      <point x="1629" y="225" type="curve" smooth="yes"/>
      <point x="1629" y="0" type="line"/>
      <point x="1683" y="0" type="line"/>
      <point x="1683" y="225" type="line" smooth="yes"/>
      <point x="1683" y="485"/>
      <point x="1531" y="585"/>
      <point x="1276" y="585" type="curve" smooth="yes"/>
      <point x="1036" y="585" type="line" smooth="yes"/>
      <point x="782" y="585"/>
      <point x="628" y="486"/>
      <point x="628" y="225" type="curve" smooth="yes"/>
      <point x="628" y="0" type="line"/>
    </contour>
    <contour>
      <point x="1541" y="1082" type="line"/>
      <point x="777" y="1082" type="line"/>
      <point x="777" y="1027" type="line"/>
      <point x="1541" y="1027" type="line"/>
    </contour>
    <contour>
      <point x="1174" y="597" type="line"/>
      <point x="1136" y="519" type="line"/>
      <point x="1183" y="519" type="line"/>
      <point x="1602" y="1082" type="line"/>
      <point x="1537" y="1082" type="line"/>
    </contour>
    <contour>
      <point x="778" y="1082" type="line"/>
      <point x="713" y="1082" type="line"/>
      <point x="1132" y="519" type="line"/>
      <point x="1179" y="519" type="line"/>
      <point x="1141" y="596" type="line"/>
    </contour>
    <contour>
      <point x="1184" y="580" type="line"/>
      <point x="1130" y="580" type="line"/>
      <point x="1130" y="0" type="line"/>
      <point x="1184" y="0" type="line"/>
    </contour>
    <contour>
      <point x="1683" y="0" type="line"/>
      <point x="1846" y="0" type="line"/>
      <point x="1846" y="54" type="line"/>
      <point x="1683" y="54" type="line"/>
    </contour>
    <contour>
      <point x="628" y="0" type="line"/>
      <point x="628" y="54" type="line"/>
      <point x="465" y="54" type="line"/>
      <point x="465" y="0" type="line"/>
    </contour>
    <contour>
      <point x="713" y="1082" type="line"/>
      <point x="626" y="1082" type="line"/>
      <point x="626" y="1028" type="line"/>
      <point x="777" y="1028" type="line"/>
    </contour>
    <contour>
      <point x="1184" y="0" type="line"/>
      <point x="1347" y="0" type="line"/>
      <point x="1347" y="54" type="line"/>
      <point x="1184" y="54" type="line"/>
    </contour>
    <contour>
      <point x="1130" y="0" type="line"/>
      <point x="1130" y="54" type="line"/>
      <point x="967" y="54" type="line"/>
      <point x="967" y="0" type="line"/>
    </contour>
    <contour>
      <point x="1538" y="1028" type="line"/>
      <point x="1689" y="1028" type="line"/>
      <point x="1689" y="1082" type="line"/>
      <point x="1602" y="1082" type="line"/>
    </contour>
  </outline>
</glyph>
<glyph name="uni047F" format="1">
  <advance width="2089"/>
  <unicode hex="047F"/>
  <outline>
    <contour>
      <point x="795" y="1400" type="line"/>
      <point x="795" y="1267" type="line"/>
      <point x="849" y="1267" type="line"/>
      <point x="849" y="1400" type="line"/>
      <point x="1182" y="1400" type="line"/>
      <point x="1180" y="1456" type="line"/>
      <point x="481" y="1456" type="line"/>
      <point x="478" y="1400" type="line"/>
    </contour>
    <contour>
      <point x="811" y="1082" type="line"/>
      <point x="811" y="409" type="line" smooth="yes"/>
      <point x="811" y="167"/>
      <point x="683" y="33"/>
      <point x="508" y="33" type="curve" smooth="yes"/>
      <point x="333" y="33"/>
      <point x="204" y="167"/>
      <point x="204" y="409" type="curve" smooth="yes"/>
      <point x="204" y="1082" type="line"/>
      <point x="150" y="1082" type="line"/>
      <point x="150" y="409" type="line" smooth="yes"/>
      <point x="150" y="121"/>
      <point x="302" y="-21"/>
      <point x="508" y="-21" type="curve" smooth="yes"/>
      <point x="713" y="-21"/>
      <point x="865" y="121"/>
      <point x="865" y="409" type="curve" smooth="yes"/>
      <point x="865" y="1082" type="line"/>
    </contour>
    <contour>
      <point x="1472" y="1082" type="line"/>
      <point x="1472" y="409" type="line" smooth="yes"/>
      <point x="1472" y="167"/>
      <point x="1344" y="33"/>
      <point x="1169" y="33" type="curve" smooth="yes"/>
      <point x="995" y="33"/>
      <point x="865" y="167"/>
      <point x="865" y="409" type="curve" smooth="yes"/>
      <point x="865" y="1082" type="line"/>
      <point x="811" y="1082" type="line"/>
      <point x="811" y="409" type="line" smooth="yes"/>
      <point x="811" y="121"/>
      <point x="963" y="-21"/>
      <point x="1169" y="-21" type="curve" smooth="yes"/>
      <point x="1374" y="-21"/>
      <point x="1526" y="121"/>
      <point x="1526" y="409" type="curve" smooth="yes"/>
      <point x="1526" y="1082" type="line"/>
    </contour>
  </outline>
</glyph>
<glyph name="uni04A8" format="1">
  <advance width="2029"/>
  <unicode hex="04A8"/>
  <outline>
    <contour>
      <point x="1398" y="31" type="line"/>
      <point x="921" y="31"/>
      <point x="670" y="334"/>
      <point x="670" y="695" type="curve" smooth="yes"/>
      <point x="670" y="880" type="line" smooth="yes"/>
      <point x="670" y="1186"/>
      <point x="786" y="1409"/>
      <point x="995" y="1409" type="curve" smooth="yes"/>
      <point x="1208" y="1409"/>
      <point x="1330" y="1191"/>
      <point x="1330" y="880" type="curve" smooth="yes"/>
      <point x="1330" y="695" type="line" smooth="yes"/>
      <point x="1330" y="326"/>
      <point x="1113" y="33"/>
      <point x="720" y="33" type="curve" smooth="yes"/>
      <point x="376" y="33"/>
      <point x="161" y="333"/>
      <point x="161" y="717" type="curve" smooth="yes"/>
      <point x="161" y="861" type="line" smooth="yes"/>
      <point x="161" y="1165"/>
      <point x="316" y="1423"/>
      <point x="564" y="1423" type="curve"/>
      <point x="560" y="1477" type="line"/>
      <point x="288" y="1477"/>
      <point x="106" y="1221"/>
      <point x="106" y="859" type="curve" smooth="yes"/>
      <point x="106" y="717" type="line" smooth="yes"/>
      <point x="106" y="302"/>
      <point x="325" y="-21"/>
      <point x="720" y="-21" type="curve" smooth="yes"/>
      <point x="1124" y="-21"/>
      <point x="1384" y="263"/>
      <point x="1384" y="695" type="curve" smooth="yes"/>
      <point x="1384" y="879" type="line" smooth="yes"/>
      <point x="1384" y="1233"/>
      <point x="1228" y="1463"/>
      <point x="995" y="1463" type="curve" smooth="yes"/>
      <point x="761" y="1463"/>
      <point x="615" y="1233"/>
      <point x="615" y="879" type="curve" smooth="yes"/>
      <point x="615" y="697" type="line" smooth="yes"/>
      <point x="615" y="293"/>
      <point x="922" y="-22"/>
      <point x="1398" y="-22" type="curve"/>
    </contour>
  </outline>
</glyph>
<glyph name="uni04B5" format="1">
  <advance width="1957"/>
  <unicode hex="04B5"/>
  <outline>
    <contour>
      <point x="838" y="1082" type="line"/>
      <point x="50" y="1082" type="line"/>
      <point x="50" y="1028" type="line"/>
      <point x="838" y="1028" type="line"/>
    </contour>
    <contour>
      <point x="838" y="1082" type="line"/>
      <point x="784" y="1082" type="line"/>
      <point x="784" y="789" type="line"/>
      <point x="838" y="789" type="line"/>
    </contour>
    <contour>
      <point x="50" y="1082" type="line"/>
      <point x="50" y="789" type="line"/>
      <point x="104" y="789" type="line"/>
      <point x="104" y="1082" type="line"/>
    </contour>
    <contour>
      <point x="414" y="0" type="line"/>
      <point x="1182" y="0" type="line"/>
      <point x="1182" y="1082" type="line"/>
      <point x="1127" y="1082" type="line"/>
      <point x="1127" y="54" type="line"/>
      <point x="468" y="54" type="line"/>
      <point x="468" y="1082" type="line"/>
      <point x="414" y="1082" type="line"/>
    </contour>
    <contour>
      <point x="1303" y="54" type="line"/>
      <point x="1134" y="54" type="line"/>
      <point x="1134" y="0" type="line"/>
      <point x="1249" y="0" type="line"/>
      <point x="1249" y="-321" type="line"/>
      <point x="1303" y="-321" type="line"/>
    </contour>
    <contour>
      <point x="1182" y="1082" type="line"/>
      <point x="1182" y="1028" type="line"/>
      <point x="1345" y="1028" type="line"/>
      <point x="1345" y="1082" type="line"/>
    </contour>
    <contour>
      <point x="414" y="54" type="line"/>
      <point x="251" y="54" type="line"/>
      <point x="251" y="0" type="line"/>
      <point x="414" y="0" type="line"/>
    </contour>
  </outline>
</glyph>
<glyph name="uni04BA" format="1">
  <advance width="1828"/>
  <unicode hex="04BA"/>
  <outline>
    <contour>
      <point x="1125" y="0" type="line"/>
      <point x="1125" y="351" type="line" smooth="yes"/>
      <point x="1125" y="677"/>
      <point x="953" y="798"/>
      <point x="646" y="798" type="curve" smooth="yes"/>
      <point x="497" y="798"/>
      <point x="345" y="766"/>
      <point x="212" y="728" type="curve"/>
      <point x="212" y="674" type="line"/>
      <point x="357" y="719"/>
      <point x="500" y="744"/>
      <point x="646" y="744" type="curve" smooth="yes"/>
      <point x="921" y="744"/>
      <point x="1071" y="631"/>
      <point x="1071" y="351" type="curve" smooth="yes"/>
      <point x="1071" y="0" type="line"/>
    </contour>
    <contour>
      <point x="244" y="0" type="line"/>
      <point x="244" y="1456" type="line"/>
      <point x="190" y="1456" type="line"/>
      <point x="190" y="0" type="line"/>
    </contour>
    <contour>
      <point x="190" y="0" type="line"/>
      <point x="190" y="54" type="line"/>
      <point x="27" y="54" type="line"/>
      <point x="27" y="0" type="line"/>
    </contour>
    <contour>
      <point x="190" y="1456" type="line"/>
      <point x="27" y="1456" type="line"/>
      <point x="27" y="1402" type="line"/>
      <point x="190" y="1402" type="line"/>
    </contour>
    <contour>
      <point x="244" y="1456" type="line"/>
      <point x="244" y="1402" type="line"/>
      <point x="407" y="1402" type="line"/>
      <point x="407" y="1456" type="line"/>
    </contour>
    <contour>
      <point x="244" y="0" type="line"/>
      <point x="407" y="0" type="line"/>
      <point x="407" y="54" type="line"/>
      <point x="244" y="54" type="line"/>
    </contour>
    <contour>
      <point x="1071" y="0" type="line"/>
      <point x="1071" y="54" type="line"/>
      <point x="908" y="54" type="line"/>
      <point x="908" y="0" type="line"/>
    </contour>
    <contour>
      <point x="1125" y="0" type="line"/>
      <point x="1288" y="0" type="line"/>
      <point x="1288" y="54" type="line"/>
      <point x="1125" y="54" type="line"/>
    </contour>
  </outline>
</glyph>
<glyph name="uni04C4" format="1">
  <advance width="1750"/>
  <unicode hex="04C4"/>
  <outline>
    <contour>
      <point x="308" y="1082" type="line"/>
      <point x="253" y="1082" type="line"/>
      <point x="253" y="0" type="line"/>
      <point x="308" y="0" type="line"/>
    </contour>
    <contour>
      <point x="1023" y="1082" type="line"/>
      <point x="945" y="1082" type="line"/>
      <point x="486" y="582" type="line"/>
      <point x="289" y="582" type="line"/>
      <point x="286" y="529" type="line"/>
      <point x="513" y="529" type="line"/>
    </contour>
    <contour>
      <point x="269" y="530" type="line"/>
      <point x="518" y="530" type="line" smooth="yes"/>
      <point x="780" y="530"/>
      <point x="993" y="419"/>
      <point x="984" y="136" type="curve" smooth="yes"/>
      <point x="980" y="3"/>
      <point x="914" y="-187"/>
      <point x="657" y="-238" type="curve"/>
      <point x="674" y="-280" type="line"/>
      <point x="963" y="-224"/>
      <point x="1042" y="5"/>
      <point x="1038" y="136" type="curve" smooth="yes"/>
      <point x="1038" y="465"/>
      <point x="811" y="584"/>
      <point x="518" y="584" type="curve" smooth="yes"/>
      <point x="269" y="584" type="line"/>
    </contour>
    <contour>
      <point x="1023" y="1082" type="line"/>
      <point x="959" y="1028" type="line"/>
      <point x="1110" y="1028" type="line"/>
      <point x="1110" y="1082" type="line"/>
    </contour>
    <contour>
      <point x="253" y="0" type="line"/>
      <point x="253" y="54" type="line"/>
      <point x="90" y="54" type="line"/>
      <point x="90" y="0" type="line"/>
    </contour>
    <contour>
      <point x="308" y="0" type="line"/>
      <point x="471" y="0" type="line"/>
      <point x="471" y="54" type="line"/>
      <point x="308" y="54" type="line"/>
    </contour>
    <contour>
      <point x="308" y="1082" type="line"/>
      <point x="308" y="1028" type="line"/>
      <point x="471" y="1028" type="line"/>
      <point x="471" y="1082" type="line"/>
    </contour>
    <contour>
      <point x="253" y="1082" type="line"/>
      <point x="90" y="1082" type="line"/>
      <point x="90" y="1028" type="line"/>
      <point x="253" y="1028" type="line"/>
    </contour>
  </outline>
</glyph>
<glyph name="uni0508" format="1">
  <advance width="2456"/>
  <unicode hex="0508"/>
  <outline>
    <contour>
      <point x="1163" y="1456" type="line"/>
      <point x="449" y="1456" type="line"/>
      <point x="449" y="1402" type="line"/>
      <point x="1163" y="1402" type="line"/>
    </contour>
    <contour>
      <point x="438" y="1456" type="line"/>
      <point x="438" y="768" type="line" smooth="yes"/>
      <point x="438" y="261"/>
      <point x="338" y="54"/>
      <point x="96" y="54" type="curve" smooth="yes"/>
      <point x="55" y="54" type="line"/>
      <point x="55" y="0" type="line"/>
      <point x="108" y="0" type="line" smooth="yes"/>
      <point x="388" y="0"/>
      <point x="492" y="250"/>
      <point x="492" y="768" type="curve" smooth="yes"/>
      <point x="492" y="1456" type="line"/>
    </contour>
    <contour>
      <point x="1144" y="345" type="line" smooth="yes"/>
      <point x="1152" y="83"/>
      <point x="1256" y="-25"/>
      <point x="1425" y="-21" type="curve" smooth="yes"/>
      <point x="1656" y="-21"/>
      <point x="1823" y="158"/>
      <point x="1828" y="529" type="curve" smooth="yes"/>
      <point x="1831" y="666"/>
      <point x="1795" y="802"/>
      <point x="1761" y="932" type="curve"/>
      <point x="1705" y="931" type="line"/>
      <point x="1743" y="798"/>
      <point x="1774" y="662"/>
      <point x="1773" y="529" type="curve" smooth="yes"/>
      <point x="1769" y="227"/>
      <point x="1648" y="36"/>
      <point x="1425" y="33" type="curve" smooth="yes"/>
      <point x="1285" y="33"/>
      <point x="1197" y="130"/>
      <point x="1198" y="345" type="curve" smooth="yes"/>
      <point x="1198" y="1456" type="line"/>
      <point x="1144" y="1456" type="line"/>
    </contour>
    <contour>
      <point x="1198" y="1456" type="line"/>
      <point x="1198" y="1402" type="line"/>
      <point x="1361" y="1402" type="line"/>
      <point x="1361" y="1456" type="line"/>
    </contour>
    <contour>
      <point x="1705" y="931" type="line"/>
      <point x="1498" y="931" type="line"/>
      <point x="1498" y="877" type="line"/>
      <point x="1769" y="877" type="line"/>
    </contour>
    <contour>
      <point x="438" y="1456" type="line"/>
      <point x="275" y="1456" type="line"/>
      <point x="275" y="1402" type="line"/>
      <point x="438" y="1402" type="line"/>
    </contour>
  </outline>
</glyph>
<glyph name="uni0509" format="1">
  <advance width="2177"/>
  <unicode hex="0509"/>
  <outline>
    <contour>
      <point x="916" y="1082" type="line"/>
      <point x="387" y="1082" type="line"/>
      <point x="387" y="1027" type="line"/>
      <point x="916" y="1027" type="line"/>
    </contour>
    <contour>
      <point x="339" y="1082" type="line"/>
      <point x="339" y="622" type="line" smooth="yes"/>
      <point x="339" y="232"/>
      <point x="270" y="53"/>
      <point x="110" y="53" type="curve" smooth="yes"/>
      <point x="65" y="53" type="line"/>
      <point x="65" y="0" type="line"/>
      <point x="122" y="0" type="line" smooth="yes"/>
      <point x="313" y="0"/>
      <point x="393" y="212"/>
      <point x="393" y="622" type="curve" smooth="yes"/>
      <point x="393" y="1082" type="line"/>
    </contour>
    <contour>
      <point x="891" y="345" type="line" smooth="yes"/>
      <point x="898" y="83"/>
      <point x="995" y="-25"/>
      <point x="1152" y="-21" type="curve" smooth="yes"/>
      <point x="1371" y="-21"/>
      <point x="1530" y="130"/>
      <point x="1535" y="444" type="curve" smooth="yes"/>
      <point x="1538" y="573"/>
      <point x="1502" y="701"/>
      <point x="1467" y="826" type="curve"/>
      <point x="1412" y="825" type="line"/>
      <point x="1451" y="699"/>
      <point x="1482" y="570"/>
      <point x="1480" y="444" type="curve" smooth="yes"/>
      <point x="1476" y="193"/>
      <point x="1362" y="36"/>
      <point x="1152" y="33" type="curve" smooth="yes"/>
      <point x="1026" y="33"/>
      <point x="944" y="130"/>
      <point x="945" y="345" type="curve" smooth="yes"/>
      <point x="945" y="1082" type="line"/>
      <point x="891" y="1082" type="line"/>
    </contour>
    <contour>
      <point x="945" y="1082" type="line"/>
      <point x="945" y="1028" type="line"/>
      <point x="1108" y="1028" type="line"/>
      <point x="1108" y="1082" type="line"/>
    </contour>
    <contour>
      <point x="1412" y="825" type="line"/>
      <point x="1325" y="825" type="line"/>
      <point x="1325" y="771" type="line"/>
      <point x="1476" y="771" type="line"/>
    </contour>
    <contour>
      <point x="339" y="1082" type="line"/>
      <point x="176" y="1082" type="line"/>
      <point x="176" y="1028" type="line"/>
      <point x="339" y="1028" type="line"/>
    </contour>
  </outline>
</glyph>
<glyph name="uni050D" format="1">
  <advance width="1552"/>
  <unicode hex="050D"/>
  <outline>
    <contour>
      <point x="558" y="33" type="curve" smooth="yes"/>
      <point x="289" y="33"/>
      <point x="158" y="283"/>
      <point x="158" y="520" type="curve" smooth="yes"/>
      <point x="158" y="562" type="line" smooth="yes"/>
      <point x="158" y="797"/>
      <point x="269" y="1048"/>
      <point x="537" y="1048" type="curve" smooth="yes"/>
      <point x="630" y="1048"/>
      <point x="713" y="1030"/>
      <point x="774" y="994" type="curve"/>
      <point x="798" y="1043" type="line"/>
      <point x="744" y="1085"/>
      <point x="656" y="1102"/>
      <point x="537" y="1102" type="curve" smooth="yes"/>
      <point x="260" y="1102"/>
      <point x="104" y="850"/>
      <point x="104" y="562" type="curve" smooth="yes"/>
      <point x="104" y="520" type="line" smooth="yes"/>
      <point x="104" y="232"/>
      <point x="266" y="-21"/>
      <point x="558" y="-21" type="curve" smooth="yes"/>
      <point x="770" y="-21"/>
      <point x="926" y="83"/>
      <point x="931" y="301" type="curve" smooth="yes"/>
      <point x="932" y="379"/>
      <point x="919" y="460"/>
      <point x="904" y="537" type="curve"/>
      <point x="849" y="537" type="line"/>
      <point x="869" y="461"/>
      <point x="877" y="376"/>
      <point x="877" y="301" type="curve"/>
      <point x="874" y="158"/>
      <point x="798" y="36"/>
    </contour>
    <contour>
      <point x="849" y="537" type="line"/>
      <point x="672" y="537" type="line"/>
      <point x="672" y="483" type="line"/>
      <point x="913" y="483" type="line"/>
    </contour>
  </outline>
</glyph>
<glyph name="uni0510" format="1">
  <advance width="1779"/>
  <unicode hex="0510"/>
  <outline>
    <contour>
      <point x="663" y="764" type="line" smooth="yes"/>
      <point x="282" y="764"/>
      <point x="106" y="629"/>
      <point x="106" y="386" type="curve" smooth="yes"/>
      <point x="106" y="128"/>
      <point x="337" y="-21"/>
      <point x="662" y="-21" type="curve" smooth="yes"/>
      <point x="923" y="-21"/>
      <point x="1194" y="112"/>
      <point x="1194" y="404" type="curve"/>
      <point x="1140" y="404" type="line"/>
      <point x="1140" y="188"/>
      <point x="949" y="33"/>
      <point x="662" y="33" type="curve" smooth="yes"/>
      <point x="340" y="33"/>
      <point x="160" y="165"/>
      <point x="160" y="382" type="curve" smooth="yes"/>
      <point x="160" y="620"/>
      <point x="337" y="715"/>
      <point x="667" y="715" type="curve" smooth="yes"/>
      <point x="850" y="715" type="line"/>
      <point x="850" y="764" type="line"/>
    </contour>
    <contour>
      <point x="850" y="719" type="line"/>
      <point x="850" y="771" type="line"/>
      <point x="667" y="771" type="line" smooth="yes"/>
      <point x="324" y="771"/>
      <point x="182" y="893"/>
      <point x="182" y="1087" type="curve" smooth="yes"/>
      <point x="182" y="1282"/>
      <point x="328" y="1423"/>
      <point x="662" y="1423" type="curve" smooth="yes"/>
      <point x="917" y="1423"/>
      <point x="1120" y="1291"/>
      <point x="1120" y="1075" type="curve"/>
      <point x="1174" y="1075" type="line"/>
      <point x="1174" y="1323"/>
      <point x="940" y="1477"/>
      <point x="662" y="1477" type="curve" smooth="yes"/>
      <point x="337" y="1477"/>
      <point x="128" y="1341"/>
      <point x="128" y="1083" type="curve" smooth="yes"/>
      <point x="128" y="883"/>
      <point x="315" y="719"/>
      <point x="663" y="719" type="curve" smooth="yes"/>
    </contour>
  </outline>
</glyph>
<glyph name="daggerdbl" format="1">
  <advance width="1639"/>
  <unicode hex="2021"/>
  <outline>
    <contour>
      <point x="579" y="1456" type="line"/>
      <point x="524" y="1456" type="line"/>
      <point x="524" y="-416" type="line"/>
      <point x="579" y="-416" type="line"/>
    </contour>
    <contour>
      <point x="1060" y="1082" type="line"/>
      <point x="71" y="1082" type="line"/>
      <point x="71" y="1027" type="line"/>
      <point x="1060" y="1027" type="line"/>
    </contour>
    <contour>
      <point x="1060" y="54" type="line"/>
      <point x="71" y="54" type="line"/>
      <point x="71" y="0" type="line"/>
      <point x="1060" y="0" type="line"/>
    </contour>
  </outline>
</glyph>
<glyph name="ellipsis" format="1">
  <advance width="1755"/>
  <unicode hex="2026"/>
  <outline>
    <contour>
      <point x="269" y="130" type="line"/>
      <point x="183" y="130" type="line"/>
      <point x="183" y="0" type="line"/>
      <point x="269" y="0" type="line"/>
    </contour>
    <contour>
      <point x="653" y="130" type="line"/>
      <point x="567" y="130" type="line"/>
      <point x="567" y="0" type="line"/>
      <point x="653" y="0" type="line"/>
    </contour>
    <contour>
      <point x="1022" y="130" type="line"/>
      <point x="936" y="130" type="line"/>
      <point x="936" y="0" type="line"/>
      <point x="1022" y="0" type="line"/>
    </contour>
  </outline>
</glyph>
<glyph name="guilsinglright" format="1">
  <advance width="1057"/>
  <unicode hex="203A"/>
  <outline>
    <contour>
      <point x="83" y="171" type="line"/>
      <point x="153" y="171" type="line"/>
      <point x="447" y="541" type="line"/>
      <point x="447" y="554" type="line"/>
      <point x="380" y="555" type="line"/>
    </contour>
    <contour>
      <point x="83" y="940" type="line"/>
      <point x="380" y="546" type="line"/>
      <point x="447" y="547" type="line"/>
      <point x="447" y="560" type="line"/>
      <point x="153" y="940" type="line"/>
    </contour>
  </outline>
</glyph>
<glyph name="Omega" format="1">
  <advance width="2336"/>
  <unicode hex="2126"/>
  <outline>
    <contour>
      <point x="1172" y="772" type="line" smooth="yes"/>
      <point x="1172" y="360"/>
      <point x="918" y="155"/>
      <point x="753" y="78" type="curve"/>
      <point x="753" y="19" type="line"/>
      <point x="940" y="99"/>
      <point x="1226" y="332"/>
      <point x="1226" y="772" type="curve" smooth="yes"/>
      <point x="1226" y="809" type="line" smooth="yes"/>
      <point x="1226" y="1184"/>
      <point x="990" y="1477"/>
      <point x="647" y="1477" type="curve" smooth="yes"/>
      <point x="303" y="1477"/>
      <point x="70" y="1184"/>
      <point x="70" y="809" type="curve" smooth="yes"/>
      <point x="70" y="772" type="line" smooth="yes"/>
      <point x="70" y="331"/>
      <point x="358" y="97"/>
      <point x="549" y="19" type="curve"/>
      <point x="549" y="78" type="line"/>
      <point x="385" y="154"/>
      <point x="124" y="358"/>
      <point x="124" y="772" type="curve" smooth="yes"/>
      <point x="124" y="811" type="line" smooth="yes"/>
      <point x="124" y="1153"/>
      <point x="327" y="1423"/>
      <point x="647" y="1423" type="curve" smooth="yes"/>
      <point x="967" y="1423"/>
      <point x="1172" y="1153"/>
      <point x="1172" y="811" type="curve" smooth="yes"/>
    </contour>
    <contour>
      <point x="753" y="0" type="line"/>
      <point x="1187" y="0" type="line"/>
      <point x="1187" y="54" type="line"/>
      <point x="753" y="54" type="line"/>
    </contour>
    <contour>
      <point x="114" y="0" type="line"/>
      <point x="549" y="0" type="line"/>
      <point x="549" y="54" type="line"/>
      <point x="114" y="54" type="line"/>
    </contour>
  </outline>
</glyph>
<glyph name="threeeighths" format="1">
  <advance width="2296"/>
  <unicode hex="215C"/>
  <outline>
    <contour>
      <point x="358" y="1050" type="line" smooth="yes"/>
      <point x="524" y="1050"/>
      <point x="619" y="1140"/>
      <point x="619" y="1251" type="curve" smooth="yes"/>
      <point x="619" y="1395"/>
      <point x="516" y="1472"/>
      <point x="355" y="1472" type="curve" smooth="yes"/>
      <point x="209" y="1472"/>
      <point x="86" y="1388"/>
      <point x="86" y="1252" type="curve"/>
      <point x="141" y="1252" type="line"/>
      <point x="141" y="1353"/>
      <point x="236" y="1417"/>
      <point x="355" y="1417" type="curve" smooth="yes"/>
      <point x="501" y="1417"/>
      <point x="564" y="1347"/>
      <point x="564" y="1254" type="curve" smooth="yes"/>
      <point x="564" y="1158"/>
      <point x="504" y="1097"/>
      <point x="356" y="1097" type="curve" smooth="yes"/>
      <point x="242" y="1097" type="line"/>
      <point x="242" y="1050" type="line"/>
    </contour>
    <contour>
      <point x="242" y="1085" type="line"/>
      <point x="242" y="1041" type="line"/>
      <point x="356" y="1041" type="line" smooth="yes"/>
      <point x="501" y="1041"/>
      <point x="577" y="992"/>
      <point x="577" y="875" type="curve" smooth="yes"/>
      <point x="577" y="770"/>
      <point x="498" y="704"/>
      <point x="355" y="704" type="curve" smooth="yes"/>
      <point x="219" y="704"/>
      <point x="129" y="780"/>
      <point x="129" y="882" type="curve"/>
      <point x="72" y="882" type="line"/>
      <point x="72" y="720"/>
      <point x="217" y="649"/>
      <point x="355" y="649" type="curve" smooth="yes"/>
      <point x="516" y="649"/>
      <point x="633" y="732"/>
      <point x="633" y="877" type="curve" smooth="yes"/>
      <point x="633" y="1012"/>
      <point x="541" y="1085"/>
      <point x="358" y="1085" type="curve" smooth="yes"/>
    </contour>
    <contour>
      <point x="1219" y="1269" type="line"/>
      <point x="1174" y="1300" type="line"/>
      <point x="463" y="162" type="line"/>
      <point x="508" y="131" type="line"/>
    </contour>
    <contour>
      <point x="1668" y="218" type="curve" smooth="yes"/>
      <point x="1668" y="347"/>
      <point x="1537" y="434"/>
      <point x="1382" y="434" type="curve" smooth="yes"/>
      <point x="1216" y="434"/>
      <point x="1083" y="347"/>
      <point x="1083" y="218" type="curve" smooth="yes"/>
      <point x="1083" y="70"/>
      <point x="1216" y="-11"/>
      <point x="1383" y="-11" type="curve" smooth="yes"/>
      <point x="1538" y="-11"/>
      <point x="1668" y="70"/>
    </contour>
    <contour>
      <point x="1613" y="215" type="curve" smooth="yes"/>
      <point x="1613" y="108"/>
      <point x="1509" y="44"/>
      <point x="1383" y="44" type="curve" smooth="yes"/>
      <point x="1246" y="44"/>
      <point x="1137" y="108"/>
      <point x="1137" y="215" type="curve" smooth="yes"/>
      <point x="1137" y="320"/>
      <point x="1246" y="388"/>
      <point x="1382" y="388" type="curve" smooth="yes"/>
      <point x="1507" y="388"/>
      <point x="1613" y="320"/>
    </contour>
    <contour>
      <point x="1644" y="598" type="curve" smooth="yes"/>
      <point x="1644" y="740"/>
      <point x="1522" y="812"/>
      <point x="1382" y="812" type="curve" smooth="yes"/>
      <point x="1230" y="812"/>
      <point x="1108" y="740"/>
      <point x="1108" y="598" type="curve" smooth="yes"/>
      <point x="1108" y="476"/>
      <point x="1230" y="395"/>
      <point x="1383" y="395" type="curve" smooth="yes"/>
      <point x="1523" y="395"/>
      <point x="1644" y="476"/>
    </contour>
    <contour>
      <point x="1588" y="601" type="curve" smooth="yes"/>
      <point x="1588" y="503"/>
      <point x="1495" y="442"/>
      <point x="1383" y="442" type="curve" smooth="yes"/>
      <point x="1260" y="442"/>
      <point x="1162" y="503"/>
      <point x="1162" y="601" type="curve" smooth="yes"/>
      <point x="1162" y="702"/>
      <point x="1260" y="757"/>
      <point x="1382" y="757" type="curve" smooth="yes"/>
      <point x="1494" y="757"/>
      <point x="1588" y="696"/>
    </contour>
  </outline>
</glyph>
<glyph name="radical" format="1">
  <advance width="1618"/>
  <unicode hex="221A"/>
  <outline>
    <contour>
      <point x="498" y="239" type="line"/>
      <point x="423" y="0" type="line"/>
      <point x="475" y="0" type="line"/>
      <point x="934" y="1456" type="line"/>
      <point x="876" y="1456" type="line"/>
    </contour>
    <contour>
      <point x="224" y="705" type="line"/>
      <point x="165" y="705" type="line"/>
      <point x="424" y="0" type="line"/>
      <point x="475" y="0" type="line"/>
      <point x="395" y="239" type="line"/>
    </contour>
    <contour>
      <point x="61" y="651" type="line"/>
      <point x="211" y="651" type="line"/>
      <point x="211" y="705" type="line"/>
      <point x="61" y="705" type="line"/>
    </contour>
  </outline>
</glyph>
<glyph name="infinity" format="1">
  <advance width="2625"/>
  <unicode hex="221E"/>
  <outline>
    <contour>
      <point x="106" y="497" type="line" smooth="yes"/>
      <point x="106" y="219"/>
      <point x="279" y="-21"/>
      <point x="561" y="-21" type="curve" smooth="yes"/>
      <point x="916" y="-21"/>
      <point x="1058" y="414"/>
      <point x="1089" y="520" type="curve"/>
      <point x="1089" y="562" type="line"/>
      <point x="1056" y="675"/>
      <point x="912" y="1102"/>
      <point x="559" y="1102" type="curve" smooth="yes"/>
      <point x="279" y="1102"/>
      <point x="106" y="863"/>
      <point x="106" y="585" type="curve" smooth="yes"/>
    </contour>
    <contour>
      <point x="160" y="585" type="line" smooth="yes"/>
      <point x="160" y="806"/>
      <point x="293" y="1048"/>
      <point x="559" y="1048" type="curve" smooth="yes"/>
      <point x="907" y="1048"/>
      <point x="1035" y="558"/>
      <point x="1035" y="562" type="curve"/>
      <point x="1035" y="520" type="line"/>
      <point x="1035" y="524"/>
      <point x="907" y="33"/>
      <point x="561" y="33" type="curve" smooth="yes"/>
      <point x="293" y="33"/>
      <point x="160" y="273"/>
      <point x="160" y="497" type="curve" smooth="yes"/>
    </contour>
    <contour>
      <point x="2033" y="585" type="line" smooth="yes"/>
      <point x="2033" y="863"/>
      <point x="1860" y="1102"/>
      <point x="1581" y="1102" type="curve" smooth="yes"/>
      <point x="1228" y="1102"/>
      <point x="1082" y="675"/>
      <point x="1049" y="562" type="curve"/>
      <point x="1049" y="520" type="line"/>
      <point x="1080" y="414"/>
      <point x="1224" y="-21"/>
      <point x="1579" y="-21" type="curve" smooth="yes"/>
      <point x="1860" y="-21"/>
      <point x="2033" y="219"/>
      <point x="2033" y="497" type="curve" smooth="yes"/>
    </contour>
    <contour>
      <point x="1979" y="497" type="line" smooth="yes"/>
      <point x="1979" y="273"/>
      <point x="1846" y="33"/>
      <point x="1579" y="33" type="curve" smooth="yes"/>
      <point x="1231" y="33"/>
      <point x="1103" y="524"/>
      <point x="1104" y="520" type="curve"/>
      <point x="1104" y="562" type="line"/>
      <point x="1103" y="558"/>
      <point x="1231" y="1048"/>
      <point x="1581" y="1048" type="curve" smooth="yes"/>
      <point x="1846" y="1048"/>
      <point x="1979" y="806"/>
      <point x="1979" y="585" type="curve" smooth="yes"/>
    </contour>
  </outline>
</glyph>
<glyph name="lozenge" format="1">
  <advance width="1525"/>
  <unicode hex="25CA"/>
  <outline>
    <contour>
      <point x="55" y="727" type="line"/>
      <point x="476" y="0" type="line"/>
      <point x="527" y="0" type="line"/>
      <point x="446" y="156" type="line"/>
      <point x="114" y="727" type="line"/>
      <point x="446" y="1300" type="line"/>
      <point x="527" y="1456" type="line"/>
      <point x="476" y="1456" type="line"/>
    </contour>
    <contour>
      <point x="556" y="156" type="line"/>
      <point x="476" y="0" type="line"/>
      <point x="527" y="0" type="line"/>
      <point x="947" y="727" type="line"/>
      <point x="527" y="1456" type="line"/>
      <point x="476" y="1456" type="line"/>
      <point x="556" y="1300" type="line"/>
      <point x="889" y="727" type="line"/>
    </contour>
  </outline>
</glyph>
<glyph name="fi" format="1">
  <advance width="1683"/>
  <unicode hex="FB01"/>
  <outline>
    <contour>
      <point x="313" y="0" type="line"/>
      <point x="313" y="1240" type="line" smooth="yes"/>
      <point x="313" y="1422"/>
      <point x="417" y="1527"/>
      <point x="583" y="1527" type="curve" smooth="yes"/>
      <point x="700" y="1527"/>
      <point x="762" y="1508"/>
      <point x="842" y="1472" type="curve"/>
      <point x="850" y="1524" type="line"/>
      <point x="759" y="1567"/>
      <point x="665" y="1581"/>
      <point x="582" y="1581" type="curve" smooth="yes"/>
      <point x="382" y="1581"/>
      <point x="259" y="1460"/>
      <point x="259" y="1240" type="curve" smooth="yes"/>
      <point x="259" y="0" type="line"/>
    </contour>
    <contour>
      <point x="911" y="1082" type="line"/>
      <point x="71" y="1082" type="line"/>
      <point x="71" y="1027" type="line"/>
      <point x="911" y="1027" type="line"/>
    </contour>
    <contour>
      <point x="939" y="1082" type="line"/>
      <point x="885" y="1082" type="line"/>
      <point x="885" y="0" type="line"/>
      <point x="939" y="0" type="line"/>
    </contour>
    <contour>
      <point x="259" y="0" type="line"/>
      <point x="259" y="54" type="line"/>
      <point x="96" y="54" type="line"/>
      <point x="96" y="0" type="line"/>
    </contour>
    <contour>
      <point x="885" y="0" type="line"/>
      <point x="885" y="54" type="line"/>
      <point x="722" y="54" type="line"/>
      <point x="722" y="0" type="line"/>
    </contour>
    <contour>
      <point x="939" y="0" type="line"/>
      <point x="1102" y="0" type="line"/>
      <point x="1102" y="54" type="line"/>
      <point x="939" y="54" type="line"/>
    </contour>
    <contour>
      <point x="313" y="0" type="line"/>
      <point x="476" y="0" type="line"/>
      <point x="476" y="54" type="line"/>
      <point x="313" y="54" type="line"/>
    </contour>
  </outline>
</glyph>
<glyph name="E.smcp" format="1">
  <advance width="1669"/>
  <outline>
    <contour>
      <point x="1021" y="54" type="line"/>
      <point x="275" y="54" type="line"/>
      <point x="275" y="0" type="line"/>
      <point x="1021" y="0" type="line"/>
    </contour>
    <contour>
      <point x="305" y="1165" type="line"/>
      <point x="251" y="1165" type="line"/>
      <point x="251" y="0" type="line"/>
      <point x="305" y="0" type="line"/>
    </contour>
    <contour>
      <point x="934" y="633" type="line"/>
      <point x="275" y="633" type="line"/>
      <point x="275" y="579" type="line"/>
      <point x="934" y="579" type="line"/>
    </contour>
    <contour>
      <point x="1021" y="1165" type="line"/>
      <point x="275" y="1165" type="line"/>
      <point x="275" y="1111" type="line"/>
      <point x="1021" y="1111" type="line"/>
    </contour>
    <contour>
      <point x="1021" y="1165" type="line"/>
      <point x="967" y="1165" type="line"/>
      <point x="967" y="872" type="line"/>
      <point x="1021" y="872" type="line"/>
    </contour>
    <contour>
      <point x="1021" y="0" type="line"/>
      <point x="1021" y="293" type="line"/>
      <point x="967" y="293" type="line"/>
      <point x="967" y="0" type="line"/>
    </contour>
    <contour>
      <point x="251" y="1165" type="line"/>
      <point x="88" y="1165" type="line"/>
      <point x="88" y="1111" type="line"/>
      <point x="251" y="1111" type="line"/>
    </contour>
    <contour>
      <point x="251" y="0" type="line"/>
      <point x="251" y="54" type="line"/>
      <point x="88" y="54" type="line"/>
      <point x="88" y="0" type="line"/>
    </contour>
  </outline>
</glyph>
<glyph name="cyrillichook" format="1">
  <advance width="1006"/>
  <outline>
    <contour>
      <point x="268" y="-1" type="line"/>
      <point x="268" y="-109" type="line" smooth="yes"/>
      <point x="268" y="-258"/>
      <point x="199" y="-344"/>
      <point x="77" y="-344" type="curve" smooth="yes"/>
      <point x="40" y="-344"/>
      <point x="-1" y="-325"/>
      <point x="-22" y="-325" type="curve"/>
      <point x="-35" y="-377" type="line"/>
      <point x="4" y="-390"/>
      <point x="36" y="-397"/>
      <point x="77" y="-397" type="curve" smooth="yes"/>
      <point x="230" y="-397"/>
      <point x="322" y="-295"/>
      <point x="322" y="-109" type="curve" smooth="yes"/>
      <point x="322" y="-1" type="line"/>
    </contour>
  </outline>
</glyph>
<glyph name="nine.sup" format="1">
  <advance width="1352"/>
  <outline>
    <contour>
      <point x="375" y="44" type="curve" smooth="yes"/>
      <point x="300" y="44"/>
      <point x="248" y="53"/>
      <point x="190" y="76" type="curve"/>
      <point x="178" y="23" type="line"/>
      <point x="241" y="2"/>
      <point x="308" y="-11"/>
      <point x="375" y="-11" type="curve" smooth="yes"/>
      <point x="547" y="-11"/>
      <point x="679" y="104"/>
      <point x="679" y="271" type="curve" smooth="yes"/>
      <point x="679" y="514" type="line" smooth="yes"/>
      <point x="679" y="695"/>
      <point x="553" y="812"/>
      <point x="387" y="812" type="curve" smooth="yes"/>
      <point x="217" y="812"/>
      <point x="99" y="694"/>
      <point x="99" y="543" type="curve" smooth="yes"/>
      <point x="99" y="398"/>
      <point x="200" y="295"/>
      <point x="373" y="295" type="curve" smooth="yes"/>
      <point x="527" y="295"/>
      <point x="658" y="376"/>
      <point x="658" y="515" type="curve"/>
      <point x="633" y="514" type="line"/>
      <point x="633" y="443"/>
      <point x="542" y="351"/>
      <point x="372" y="351" type="curve" smooth="yes"/>
      <point x="229" y="351"/>
      <point x="159" y="436"/>
      <point x="159" y="543" type="curve" smooth="yes"/>
      <point x="159" y="654"/>
      <point x="247" y="757"/>
      <point x="390" y="757" type="curve" smooth="yes"/>
      <point x="521" y="757"/>
      <point x="620" y="658"/>
      <point x="620" y="514" type="curve" smooth="yes"/>
      <point x="620" y="270" type="line" smooth="yes"/>
      <point x="620" y="137"/>
      <point x="519" y="44"/>
    </contour>
  </outline>
</glyph>
<glyph name="ringacute" format="1">
  <advance width="1103"/>
  <outline>
    <contour>
      <point x="243" y="1507" type="line"/>
      <point x="309" y="1507" type="line"/>
      <point x="493" y="1698" type="line"/>
      <point x="413" y="1698" type="line"/>
    </contour>
    <contour>
      <point x="129" y="1311" type="curve" smooth="yes"/>
      <point x="129" y="1234"/>
      <point x="192" y="1173"/>
      <point x="268" y="1173" type="curve" smooth="yes"/>
      <point x="343" y="1173"/>
      <point x="405" y="1234"/>
      <point x="405" y="1311" type="curve" smooth="yes"/>
      <point x="405" y="1389"/>
      <point x="343" y="1453"/>
      <point x="268" y="1453" type="curve" smooth="yes"/>
      <point x="192" y="1453"/>
      <point x="129" y="1389"/>
    </contour>
    <contour>
      <point x="180" y="1311" type="curve" smooth="yes"/>
      <point x="180" y="1364"/>
      <point x="220" y="1402"/>
      <point x="268" y="1402" type="curve" smooth="yes"/>
      <point x="316" y="1402"/>
      <point x="354" y="1364"/>
      <point x="354" y="1311" type="curve" smooth="yes"/>
      <point x="354" y="1260"/>
      <point x="316" y="1223"/>
      <point x="268" y="1223" type="curve" smooth="yes"/>
      <point x="220" y="1223"/>
      <point x="180" y="1261"/>
    </contour>
  </outline>
</glyph>
<glyph name="seven.lnum" format="1">
  <advance width="1538"/>
  <outline>
    <contour>
      <point x="884" y="1402" type="line"/>
      <point x="616" y="1060"/>
      <point x="430" y="634"/>
      <point x="374" y="91" type="curve" smooth="yes"/>
      <point x="368" y="0" type="line"/>
      <point x="422" y="0" type="line"/>
      <point x="428" y="91" type="line" smooth="yes"/>
      <point x="490" y="702"/>
      <point x="722" y="1117"/>
      <point x="949" y="1402" type="curve"/>
    </contour>
    <contour>
      <point x="949" y="1456" type="line"/>
      <point x="59" y="1456" type="line"/>
      <point x="59" y="1402" type="line"/>
      <point x="949" y="1402" type="line"/>
    </contour>
  </outline>
</glyph>
<glyph name="three.lnum" format="1">
  <advance width="1595"/>
  <outline>
    <contour>
      <point x="391" y="771" type="line"/>
      <point x="391" y="718" type="line"/>
      <point x="506" y="718" type="line" smooth="yes"/>
      <point x="773" y="718"/>
      <point x="949" y="882"/>
      <point x="949" y="1082" type="curve" smooth="yes"/>
      <point x="949" y="1327"/>
      <point x="788" y="1477"/>
      <point x="538" y="1477" type="curve" smooth="yes"/>
      <point x="304" y="1477"/>
      <point x="108" y="1324"/>
      <point x="108" y="1075" type="curve"/>
      <point x="162" y="1075" type="line"/>
      <point x="162" y="1291"/>
      <point x="328" y="1423"/>
      <point x="538" y="1423" type="curve" smooth="yes"/>
      <point x="786" y="1423"/>
      <point x="895" y="1269"/>
      <point x="895" y="1086" type="curve" smooth="yes"/>
      <point x="895" y="918"/>
      <point x="757" y="771"/>
      <point x="502" y="771" type="curve" smooth="yes"/>
    </contour>
    <contour>
      <point x="391" y="715" type="line"/>
      <point x="502" y="715" type="line" smooth="yes"/>
      <point x="750" y="715"/>
      <point x="927" y="620"/>
      <point x="927" y="382" type="curve" smooth="yes"/>
      <point x="927" y="165"/>
      <point x="789" y="33"/>
      <point x="547" y="33" type="curve" smooth="yes"/>
      <point x="310" y="33"/>
      <point x="131" y="189"/>
      <point x="131" y="405" type="curve"/>
      <point x="77" y="405" type="line"/>
      <point x="77" y="111"/>
      <point x="328" y="-21"/>
      <point x="547" y="-21" type="curve" smooth="yes"/>
      <point x="798" y="-21"/>
      <point x="981" y="128"/>
      <point x="981" y="386" type="curve" smooth="yes"/>
      <point x="981" y="629"/>
      <point x="798" y="764"/>
      <point x="506" y="764" type="curve" smooth="yes"/>
      <point x="391" y="764" type="line"/>
    </contour>
  </outline>
</glyph>
